HIERARCHY
ROOT Hips
{
	OFFSET 0.000000 1.471914 24.280096
	CHANNELS 6 Xposition Yposition Zposition Xrotation Yrotation Zrotation
	JOINT Spine
	{
		OFFSET 0.000000 0.900110 1.860670
		CHANNELS 6 Xposition Yposition Zposition Xrotation Yrotation Zrotation
		JOINT Spine1
		{
			OFFSET 0.000000 0.400320 2.270309
			CHANNELS 6 Xposition Yposition Zposition Xrotation Yrotation Zrotation
			JOINT Spine2
			{
				OFFSET 0.000000 0.200920 2.296560
				CHANNELS 6 Xposition Yposition Zposition Xrotation Yrotation Zrotation
				JOINT Spine3
				{
					OFFSET 0.000000 0.000000 2.305330
					CHANNELS 6 Xposition Yposition Zposition Xrotation Yrotation Zrotation
					JOINT Neck
					{
						OFFSET 0.000000 -0.864490 6.051487
						CHANNELS 6 Xposition Yposition Zposition Xrotation Yrotation Zrotation
						JOINT Head
						{
							OFFSET 0.000000 -0.550429 3.121674
							CHANNELS 6 Xposition Yposition Zposition Xrotation Yrotation Zrotation
							End Site
							{
								OFFSET 0.000000 0.000000 3.731750
							}
						}
					}
					JOINT RightShoulder
					{
						OFFSET -0.788280 -1.313800 4.256718
						CHANNELS 6 Xposition Yposition Zposition Xrotation Yrotation Zrotation
						JOINT RightArm
						{
							OFFSET -3.915130 0.000000 0.000000
							CHANNELS 6 Xposition Yposition Zposition Xrotation Yrotation Zrotation
							JOINT RightForeArm
							{
								OFFSET -6.914910 0.000000 0.000000
								CHANNELS 6 Xposition Yposition Zposition Xrotation Yrotation Zrotation
								JOINT RightHand
								{
									OFFSET -6.096219 0.000000 0.000000
									CHANNELS 6 Xposition Yposition Zposition Xrotation Yrotation Zrotation
									JOINT RightHandEnd
									{
										OFFSET -1.749950 0.000000 0.000000
										CHANNELS 6 Xposition Yposition Zposition Xrotation Yrotation Zrotation
										End Site
										{
											OFFSET -1.749950 0.000000 0.000000
										}
									}
									JOINT RightHandThumb1
									{
										OFFSET -0.699980 -1.166630 -0.466648
										CHANNELS 6 Xposition Yposition Zposition Xrotation Yrotation Zrotation
										End Site
										{
											OFFSET -1.690319 -0.452920 0.000000
										}
									}
								}
							}
						}
					}
					JOINT LeftShoulder
					{
						OFFSET 0.788280 -1.313800 4.256718
						CHANNELS 6 Xposition Yposition Zposition Xrotation Yrotation Zrotation
						JOINT LeftArm
						{
							OFFSET 3.915130 0.000000 0.000000
							CHANNELS 6 Xposition Yposition Zposition Xrotation Yrotation Zrotation
							JOINT LeftForeArm
							{
								OFFSET 6.914910 0.000000 0.000000
								CHANNELS 6 Xposition Yposition Zposition Xrotation Yrotation Zrotation
								JOINT LeftHand
								{
									OFFSET 6.096219 0.000000 0.000000
									CHANNELS 6 Xposition Yposition Zposition Xrotation Yrotation Zrotation
									JOINT LeftHandEnd
									{
										OFFSET 1.749950 0.000000 0.000000
										CHANNELS 6 Xposition Yposition Zposition Xrotation Yrotation Zrotation
										End Site
										{
											OFFSET 1.749950 0.000000 0.000000
										}
									}
									JOINT LeftHandThumb1
									{
										OFFSET 0.699980 -1.166630 -0.466648
										CHANNELS 6 Xposition Yposition Zposition Xrotation Yrotation Zrotation
										End Site
										{
											OFFSET 1.690319 -0.452920 0.000000
										}
									}
								}
							}
						}
					}
				}
			}
		}
	}
	JOINT RightUpLeg
	{
		OFFSET -2.338570 -0.252550 -0.551512
		CHANNELS 6 Xposition Yposition Zposition Xrotation Yrotation Zrotation
		JOINT RightLeg
		{
			OFFSET 0.000000 0.000000 -10.744959
			CHANNELS 6 Xposition Yposition Zposition Xrotation Yrotation Zrotation
			JOINT RightFoot
			{
				OFFSET 0.000000 -0.000001 -10.930849
				CHANNELS 6 Xposition Yposition Zposition Xrotation Yrotation Zrotation
				JOINT RightToeBase
				{
					OFFSET 0.000000 -4.087269 -1.487650
					CHANNELS 6 Xposition Yposition Zposition Xrotation Yrotation Zrotation
					End Site
					{
						OFFSET 0.000000 -1.891870 0.000000
					}
				}
			}
		}
	}
	JOINT LeftUpLeg
	{
		OFFSET 2.338570 -0.252550 -0.551512
		CHANNELS 6 Xposition Yposition Zposition Xrotation Yrotation Zrotation
		JOINT LeftLeg
		{
			OFFSET 0.000000 0.000000 -10.744959
			CHANNELS 6 Xposition Yposition Zposition Xrotation Yrotation Zrotation
			JOINT LeftFoot
			{
				OFFSET 0.000000 -0.000001 -10.930849
				CHANNELS 6 Xposition Yposition Zposition Xrotation Yrotation Zrotation
				JOINT LeftToeBase
				{
					OFFSET 0.000000 -4.087269 -1.487650
					CHANNELS 6 Xposition Yposition Zposition Xrotation Yrotation Zrotation
					End Site
					{
						OFFSET 0.000000 -1.891870 0.000000
					}
				}
			}
		}
	}
}
MOTION
Frames: 4
Frame Time: 0.041667
-0.000040 26.688824 40.899925 -12.885846 5.371150 -14.816133 -0.000010 0.900090 1.860675 33.148844 -5.306574 -1.540683 -0.000003 0.400274 2.270305 0.000011 -0.000000 0.000013 0.000010 0.200868 2.296560 0.000003 0.000001 0.000008 0.000014 0.000025 2.305307 0.000015 0.000001 -2.714065 -0.000026 -0.864438 6.051374 -4.806409 -2.028475 -176.183541 0.000051 -0.550416 3.121650 -0.000011 -0.000001 -0.000009 -0.788278 -1.313744 4.256833 -129.419176 42.427069 -66.346217 -3.915128 -0.000020 -0.000012 -0.000003 -0.000006 0.000002 -6.914868 -0.000000 0.000021 0.000025 0.000065 -28.661612 -6.096191 0.000014 0.000022 0.000107 0.000205 -0.000065 -1.749906 -0.000018 0.000024 0.000003 0.000001 -0.000001 -0.699969 -1.166601 -0.466634 -0.000018 -0.000007 -0.000028 0.788254 -1.313766 4.256770 -135.121386 -50.321480 58.653874 3.915247 0.000008 -0.000031 -0.000003 0.000004 0.000001 6.914928 -0.000069 0.000000 0.000006 -0.000067 24.696636 6.096265 0.000173 -0.000035 0.000161 -0.000213 0.000021 1.749988 0.000016 0.000071 -0.000010 -0.000009 0.000001 0.699981 -1.166580 -0.466641 0.000038 -0.000007 -0.000040 -2.338594 -0.252548 -0.551459 20.631652 -4.593065 -0.990085 0.000010 -0.000011 -10.744949 9.135439 4.888346 -1.140213 -0.000029 0.000066 -10.930852 0.000041 -0.000002 -0.000004 -0.000028 -4.087231 -1.487621 0.000004 0.000002 0.000003 2.338583 -0.252535 -0.551495 17.033843 -9.196489 -0.836745 -0.000017 -0.000004 -10.744922 16.381700 0.262601 -3.391772 -0.000001 -0.000001 -10.930863 -0.000022 -0.000001 -0.000003 -0.000041 -4.087202 -1.487646 0.000010 -0.000001 -0.000006 
-0.000041 26.688822 40.899944 -12.569568 5.141654 -14.735288 -0.000010 0.900090 1.860685 32.536415 -5.511540 -1.560838 -0.000002 0.400279 2.270305 0.000011 -0.000001 0.000011 0.000009 0.200862 2.296557 0.000002 0.000000 0.000006 0.000015 0.000031 2.305311 0.000013 -0.000002 -2.657759 -0.000024 -0.864441 6.051376 -4.597096 -1.358722 -177.183604 0.000052 -0.550418 3.121662 -0.000009 -0.000002 -0.000010 -0.788278 -1.313744 4.256840 -128.469656 44.510345 -65.360908 -3.915125 -0.000018 -0.000016 -0.000003 -0.000005 0.000001 -6.914862 0.000001 0.000017 0.000023 0.000064 -29.091995 -6.096192 0.000016 0.000026 0.000100 0.000203 -0.000065 -1.749898 -0.000018 0.000023 0.000001 0.000002 0.000001 -0.699959 -1.166600 -0.466631 -0.000024 -0.000004 -0.000025 0.788256 -1.313766 4.256777 -136.916046 -54.313032 55.401047 3.915250 0.000007 -0.000031 0.000003 0.000005 0.000000 6.914932 -0.000068 0.000001 0.000009 -0.000068 23.703663 6.096268 0.000173 -0.000035 0.000158 -0.000214 0.000025 1.749994 0.000018 0.000074 -0.000011 -0.000012 0.000001 0.699988 -1.166577 -0.466636 0.000034 -0.000008 -0.000042 -2.338595 -0.252548 -0.551443 20.573565 -4.450750 -1.016240 0.000009 -0.000012 -10.744951 8.632596 4.413691 -1.068592 -0.000030 0.000066 -10.930850 0.000044 -0.000003 -0.000004 -0.000029 -4.087235 -1.487624 0.000009 0.000002 -0.000000 2.338583 -0.252538 -0.551476 16.480434 -9.264488 -0.834407 -0.000018 -0.000008 -10.744926 16.691215 0.324372 -3.499292 -0.000000 -0.000005 -10.930866 -0.000020 0.000000 -0.000002 -0.000041 -4.087204 -1.487650 0.000004 0.000000 -0.000007 
-0.000042 26.688824 40.899940 -12.354479 5.035472 -14.576710 -0.000011 0.900091 1.860678 32.126088 -5.828286 -1.438989 -0.000002 0.400275 2.270302 0.000009 -0.000000 0.000011 0.000011 0.200871 2.296559 0.000001 0.000001 0.000008 0.000015 0.000032 2.305315 0.000015 -0.000002 -2.547816 -0.000024 -0.864442 6.051372 -4.585574 -1.040066 -177.754198 0.000051 -0.550417 3.121658 -0.000009 -0.000002 -0.000008 -0.788278 -1.313746 4.256834 -127.730685 46.516614 -64.012553 -3.915135 -0.000019 -0.000023 -0.000003 -0.000004 0.000002 -6.914868 -0.000001 0.000016 0.000020 0.000060 -30.676931 -6.096188 0.000019 0.000025 0.000098 0.000204 -0.000064 -1.749902 -0.000016 0.000021 0.000001 0.000001 -0.000003 -0.699964 -1.166595 -0.466635 -0.000023 -0.000006 -0.000028 0.788257 -1.313768 4.256778 -137.880960 -56.080457 53.309814 3.915244 0.000004 -0.000035 0.000001 0.000005 0.000001 6.914925 -0.000072 0.000004 0.000006 -0.000067 23.872971 6.096273 0.000171 -0.000038 0.000155 -0.000215 0.000024 1.749989 0.000014 0.000070 -0.000012 -0.000008 -0.000001 0.699987 -1.166580 -0.466637 0.000029 -0.000007 -0.000040 -2.338595 -0.252548 -0.551448 20.546973 -4.744707 -0.946180 0.000008 -0.000011 -10.744955 8.675163 4.548079 -1.090510 -0.000029 0.000064 -10.930850 0.000041 -0.000002 -0.000004 -0.000028 -4.087235 -1.487627 0.000007 0.000002 0.000003 2.338581 -0.252533 -0.551487 15.963890 -9.619591 -0.754427 -0.000019 -0.000002 -10.744923 16.673550 0.864327 -3.541228 -0.000001 -0.000005 -10.930861 -0.000017 0.000000 -0.000002 -0.000042 -4.087208 -1.487649 0.000007 0.000000 -0.000005 
-0.000043 26.688816 40.899963 -12.338902 4.553842 -14.197252 -0.000011 0.900091 1.860681 32.021529 -5.753220 -1.485045 -0.000003 0.400277 2.270298 0.000013 0.000001 0.000012 0.000011 0.200868 2.296555 0.000002 0.000000 0.000007 0.000014 0.000029 2.305315 0.000014 -0.000006 -2.444916 -0.000024 -0.864437 6.051382 -4.606238 -0.806612 -178.473458 0.000051 -0.550420 3.121662 -0.000010 -0.000000 -0.000010 -0.788277 -1.313741 4.256836 -126.852623 47.533096 -63.714812 -3.915132 -0.000021 -0.000016 -0.000002 -0.000006 0.000002 -6.914866 -0.000000 0.000021 0.000021 0.000049 -33.048854 -6.096191 0.000017 0.000028 0.000099 0.000205 -0.000062 -1.749903 -0.000019 0.000019 0.000001 0.000003 -0.000003 -0.699964 -1.166598 -0.466632 -0.000021 -0.000003 -0.000027 0.788259 -1.313760 4.256778 -137.043579 -55.023731 52.867963 3.915249 0.000009 -0.000038 0.000001 0.000005 0.000002 6.914933 -0.000071 0.000007 0.000007 -0.000063 24.856170 6.096272 0.000170 -0.000035 0.000159 -0.000218 0.000020 1.749989 0.000010 0.000063 -0.000011 -0.000011 -0.000001 0.699984 -1.166583 -0.466640 0.000036 -0.000009 -0.000044 -2.338595 -0.252547 -0.551448 20.606959 -4.439237 -0.981590 0.000008 -0.000008 -10.744953 8.482236 4.274765 -1.034361 -0.000027 0.000064 -10.930849 0.000041 -0.000002 -0.000002 -0.000029 -4.087238 -1.487626 0.000002 0.000003 0.000002 2.338582 -0.252534 -0.551482 15.516680 -9.438276 -0.759128 -0.000018 -0.000000 -10.744923 16.524490 1.126493 -3.482566 0.000000 -0.000004 -10.930863 -0.000031 -0.000000 -0.000001 -0.000041 -4.087202 -1.487648 0.000006 0.000000 -0.000006 
